<svg width="512" height="512" viewBox="0 0 512 512" fill="none" xmlns="http://www.w3.org/2000/svg">
<g clip-path="url(#clip0_411_6268)">
<path d="M243.166 0.0489197C244.09 0.0419054 245.014 0.0348911 245.967 0.0276642C248.937 0.0102357 251.907 0.00381092 254.877 0.00204468C256.397 0.00103256 256.397 0.00103256 257.948 0C272.6 0.0155263 286.836 0.420082 301.252 3.25204C302.148 3.41302 303.043 3.57399 303.966 3.73984C352.656 12.5486 397.681 35.9919 433.252 70.252C434.241 71.2002 434.241 71.2002 435.25 72.1676C444.738 81.312 453.478 90.6094 461.252 101.252C462.11 102.403 462.968 103.554 463.826 104.705C469.864 112.895 475.247 121.397 480.252 130.252C480.654 130.959 481.056 131.666 481.471 132.395C494.496 155.531 503.245 180.702 508.565 206.69C508.712 207.408 508.859 208.127 509.011 208.868C511.962 224.395 512.659 239.795 512.627 255.565C512.626 257.079 512.626 257.079 512.625 258.624C512.585 275.133 511.677 291.05 508.252 307.252C508.032 308.294 507.813 309.336 507.587 310.409C499.05 349.547 481.852 384.806 457.252 416.252C456.833 416.791 456.414 417.33 455.982 417.886C443.215 434.131 428.022 449.181 411.252 461.252C410.105 462.104 408.96 462.957 407.815 463.811C399.623 469.858 391.113 475.243 382.252 480.252C381.545 480.654 380.838 481.056 380.109 481.471C356.974 494.496 331.802 503.245 305.815 508.565C305.096 508.712 304.377 508.859 303.636 509.011C288.109 511.962 272.709 512.659 256.94 512.627C255.425 512.626 255.425 512.626 253.88 512.625C237.371 512.585 221.454 511.677 205.252 508.252C204.21 508.032 203.168 507.813 202.095 507.587C156.642 497.672 113.4 475.859 80.1275 443.097C78.1504 441.152 76.1529 439.23 74.1544 437.307C65.74 429.136 58.193 420.699 51.252 411.252C50.428 410.158 49.6038 409.064 48.7794 407.971C19.5722 368.694 0.30093 318.528 0.0489197 269.24C0.0419054 268.318 0.034891 267.395 0.0276642 266.444C0.0102633 263.484 0.00381235 260.524 0.00204468 257.565C0.00136994 256.553 0.00069519 255.542 0 254.501C0.0155375 239.867 0.423662 225.65 3.25204 211.252C3.41302 210.356 3.57399 209.461 3.73984 208.538C11.6291 164.931 31.3185 123.793 60.252 90.252C60.8863 89.507 61.5205 88.7619 62.1739 87.9942C73.9851 74.4892 86.7356 61.8179 101.252 51.252C102.402 50.3956 103.552 49.5388 104.701 48.6817C112.895 42.6399 121.413 37.2934 130.252 32.252C131.176 31.7133 131.176 31.7133 132.118 31.1637C164.85 12.1911 205.222 0.241774 243.166 0.0489197Z" fill="#FA9C0A"/>
<path d="M178.75 53.3751C174.463 59.8054 171.857 65.5715 171.875 73.3751C171.873 74.4966 171.87 75.6181 171.867 76.7735C171.985 79.6427 172.342 82.2122 173 85.0001C172.212 85.0826 171.425 85.1651 170.613 85.2501C165.844 86.2401 161.642 88.06 157.188 90.0001C156.264 90.3951 155.341 90.7901 154.389 91.1971C149.101 93.5011 144.032 96.0118 139.013 98.8531C132.087 102.771 126.176 106.108 118 104C115.266 102.893 112.744 101.668 110.191 100.191C105.403 97.588 100.339 97.3089 95.0001 98.0001C86.9755 100.38 80.1055 104.265 74.0001 110C74.0001 110.33 74.0001 110.66 74.0001 111C137.03 111.33 200.06 111.66 265 112C246.33 122.983 246.33 122.983 231.235 122.939C225.367 123.1 219.684 124.633 214 126C212.779 126.266 211.559 126.531 210.301 126.805C196.476 130.07 184.254 136.343 173 145C176.602 148.079 180.159 150.282 184.438 152.313C185.529 152.845 186.621 153.377 187.746 153.926C193.058 155.68 197.293 154.071 202.274 151.891C203.746 151.257 203.746 151.257 205.248 150.61C206.28 150.161 207.312 149.712 208.375 149.25C238.691 136.369 273.091 127.801 306 135C306 135.66 306 136.32 306 137C305.256 136.856 304.513 136.711 303.746 136.563C267.529 130.405 230.445 139.778 198 156C198 156.66 198 157.32 198 158C238.649 175.011 283.705 188.475 328.25 188.063C329.534 188.054 330.818 188.045 332.141 188.035C333.084 188.024 334.028 188.012 335 188C335 188.66 335 189.32 335 190C282.568 189.681 228.271 177.052 181.637 152.754C180.981 152.413 180.326 152.073 179.65 151.722C177.969 150.833 176.306 149.91 174.645 148.984C172.109 147.746 172.109 147.746 169.875 148.59C163.781 153.173 159.747 159.132 156.238 165.824C155.321 167.564 155.321 167.564 154.384 169.339C153.927 170.217 153.471 171.095 153 172C152.146 171.979 152.146 171.979 151.275 171.957C123.216 171.321 97.6611 171.568 71.4213 182.128C65.8036 184.375 60.1243 186.304 54.3612 188.144C49.807 189.601 45.2729 191.116 40.7397 192.637C38.5153 193.373 36.2843 194.089 34.0469 194.784C22.7192 197.787 22.7192 197.787 13.7951 204.712C12.148 208.684 11.999 212.642 12.0276 216.898C12.0004 218.979 11.7779 220.918 11.4518 222.972C9.88755 232.833 9.67809 242.596 9.75009 252.563C9.75353 253.346 9.75696 254.129 9.7605 254.936C9.96753 295.415 18.4003 332.89 37.0001 369C40.3894 367.403 42.4801 365.675 45.0626 362.938C66.3227 341.261 92.5419 329.123 121 320C121.268 320.735 121.536 321.47 121.813 322.227C126.314 332.74 135.43 339.121 145.563 343.688C153.217 346.635 160.948 348.552 169 350C169.846 350.153 170.693 350.305 171.565 350.462C188.649 353.322 205.789 353.265 223.063 353.25C224.217 353.249 225.372 353.249 226.562 353.248C229.907 353.241 233.252 353.225 236.598 353.203C237.598 353.199 238.598 353.194 239.629 353.19C245.804 353.129 251.867 352.726 258 352C257.925 353.782 257.925 353.782 257.848 355.599C256.668 383.835 255.715 412.073 254.942 440.323C254.876 442.723 254.809 445.123 254.741 447.524C254.231 465.685 253.847 483.83 254 502C254.99 502 255.98 502 257 502C257.878 494.51 258.224 487.073 258.389 479.536C258.418 478.33 258.448 477.124 258.478 475.881C258.557 472.6 258.633 469.318 258.707 466.037C258.786 462.579 258.869 459.122 258.951 455.664C259.089 449.855 259.224 444.046 259.357 438.237C259.51 431.559 259.667 424.881 259.826 418.203C259.996 411.047 260.164 403.89 260.331 396.733C260.379 394.694 260.427 392.654 260.475 390.615C260.956 370.81 260.956 370.81 261 351C262.035 351.031 262.035 351.031 263.091 351.063C274.367 351.347 285.32 349.636 296.191 346.731C300.424 345.63 304.706 344.819 309 344C309.043 344.726 309.086 345.451 309.131 346.199C309.923 358.353 311.221 370.452 312.5 382.563C312.625 383.753 312.75 384.944 312.879 386.17C316.599 421.483 320.817 456.74 325 492C325.99 492 326.98 492 328 492C327.379 479.439 326.085 467.008 324.637 454.52C324.401 452.456 324.165 450.393 323.93 448.33C323.312 442.917 322.689 437.505 322.065 432.093C321.08 423.535 320.101 414.976 319.122 406.417C318.882 404.324 318.643 402.232 318.403 400.139C316.184 380.768 314.06 361.388 312 342C313.133 341.698 313.133 341.698 314.289 341.389C315.279 341.122 316.27 340.856 317.291 340.581C318.273 340.317 319.255 340.054 320.267 339.782C329.368 337.178 336.239 332.429 342.844 325.758C345 324 345 324 349 324C350.628 325.066 350.628 325.066 352.207 326.563C352.79 327.108 353.373 327.653 353.973 328.215C354.58 328.804 355.187 329.393 355.813 330C356.442 330.6 357.072 331.199 357.72 331.816C362.082 336.009 366.149 340.333 370 345C370.804 345.917 371.609 346.833 372.438 347.777C394.584 373.087 411.619 403.266 425 434C427.903 432.694 429.894 431.334 432.066 429.016C432.629 428.418 433.191 427.82 433.77 427.205C434.657 426.237 434.657 426.237 435.563 425.25C436.184 424.575 436.805 423.901 437.445 423.206C461.44 396.865 479.244 365.824 490.337 331.992C490.857 330.431 491.417 328.882 491.992 327.34C494.51 320.489 496.106 313.505 497.625 306.375C497.831 305.429 498.037 304.483 498.25 303.508C501.509 287.69 502.381 271.925 502.313 255.813C502.311 254.917 502.309 254.021 502.307 253.098C502.263 240.12 501.921 227.343 499.483 214.556C499.144 212.762 498.834 210.962 498.545 209.159C496.853 196.331 496.853 196.331 489.375 186.438C487.273 185.249 485.145 184.109 483 183C480.85 181.681 478.732 180.319 476.611 178.954C474.181 177.393 471.735 175.861 469.285 174.332C463.707 170.832 458.196 167.234 452.688 163.625C419.094 141.655 385.106 119.855 349.5 101.25C348.433 100.69 347.367 100.13 346.268 99.5523C329.645 90.6445 329.645 90.6445 311.504 90.9962C305.982 92.4192 300.424 92.384 294.75 92.5001C282.897 92.7461 271.809 94.3071 260.375 97.4376C259.15 97.7647 259.15 97.7647 257.9 98.0985C253.631 99.2472 249.401 100.474 245.188 101.813C241.651 102.879 238.718 103.592 235 103C231.625 101 231.625 101 229 99.0001C230.456 94.8754 232.582 91.6268 235 88.0001C238.785 80.6056 238.372 69.6315 236.055 61.8087C234.867 59.3618 233.583 57.2086 232 55.0001C231.616 54.4213 231.232 53.8425 230.836 53.2462C225.931 46.5899 217.946 42.6716 210 41.0001C197.491 39.4961 187.278 44.3733 178.75 53.3751Z" fill="#C4CEFF"/>
<path d="M106.227 172.887C107.268 172.887 108.309 172.887 109.381 172.887C110.498 172.892 111.615 172.897 112.766 172.903C114.488 172.905 114.488 172.905 116.246 172.907C119.914 172.913 123.582 172.925 127.25 172.938C129.737 172.943 132.224 172.947 134.711 172.952C140.807 172.963 146.904 172.979 153 173C152.854 173.599 152.707 174.197 152.557 174.814C151.882 177.603 151.222 180.395 150.562 183.188C150.332 184.128 150.102 185.069 149.865 186.037C148.108 193.548 147.607 200.106 147 208C209.04 208 271.08 208 335 208C339.508 219.271 339.508 219.271 340.711 224.047C340.983 225.125 341.256 226.203 341.536 227.314C341.952 229.015 341.952 229.015 342.375 230.75C342.671 231.949 342.967 233.147 343.272 234.382C353.141 275.069 353.141 275.069 353.25 294.875C353.281 296.269 353.281 296.269 353.312 297.692C353.378 309.444 349.822 319.012 341.812 327.625C334.605 334.43 322.24 342 312 342C314.56 365.83 317.167 389.654 319.894 413.465C320.137 415.583 320.379 417.701 320.621 419.819C321.603 428.399 322.586 436.978 323.575 445.556C324.193 450.926 324.808 456.296 325.421 461.666C325.651 463.678 325.882 465.69 326.116 467.702C326.437 470.478 326.754 473.255 327.069 476.031C327.212 477.246 327.212 477.246 327.357 478.485C327.867 483.024 328.09 487.432 328 492C327.01 492 326.02 492 325 492C313.812 397.625 313.812 397.625 310.812 367.938C310.712 366.954 310.612 365.97 310.509 364.956C310.238 362.272 309.971 359.587 309.707 356.903C309.632 356.155 309.558 355.408 309.481 354.637C309.141 351.078 308.921 347.576 309 344C305.707 344.641 302.416 345.289 299.125 345.938C297.719 346.211 297.719 346.211 296.285 346.491C295.389 346.668 294.493 346.845 293.57 347.028C292.743 347.19 291.915 347.352 291.063 347.52C288.953 347.927 288.953 347.927 287 349C278.295 350.508 269.835 351.263 261 351C261.007 351.75 261.014 352.501 261.022 353.273C261.087 366.398 260.738 379.515 260.427 392.635C260.378 394.693 260.33 396.751 260.282 398.809C260.114 406.011 259.945 413.213 259.773 420.416C259.614 427.096 259.459 433.777 259.306 440.458C259.174 446.229 259.039 452 258.901 457.771C258.819 461.203 258.739 464.635 258.661 468.067C258.574 471.89 258.482 475.713 258.389 479.537C258.364 480.655 258.34 481.774 258.315 482.927C258.153 489.327 257.745 495.641 257 502C256.01 502 255.02 502 254 502C253.84 483.037 254.273 464.102 254.808 445.149C254.876 442.725 254.942 440.301 255.009 437.877C255.794 409.242 256.792 380.62 258 352C257.41 352.07 256.821 352.14 256.213 352.212C249.66 352.934 243.188 353.175 236.598 353.203C234.996 353.214 234.996 353.214 233.362 353.225C229.929 353.242 226.496 353.248 223.062 353.25C221.894 353.251 220.726 353.252 219.522 353.253C202.515 353.243 185.785 353.024 169 350C168.167 349.85 167.333 349.701 166.474 349.546C148.415 346.125 133.141 339.829 122.363 324.321C121 322 121 322 121 320C94.9373 327.91 72.4444 338.913 51.9999 357C51.2032 357.686 50.4066 358.372 49.5858 359.078C46.6523 361.605 43.8123 364.149 41.1249 366.938C38.9999 369 38.9999 369 36.9999 369C32.4435 359.681 27.9761 350.35 24.1874 340.688C23.9224 340.022 23.6574 339.355 23.3844 338.669C18.9091 326.997 16.1701 314.873 13.8124 302.625C13.5526 301.344 13.2929 300.063 13.0253 298.743C11.2316 289.51 10.3153 280.386 9.99988 271C9.97655 270.314 9.95321 269.628 9.92917 268.92C9.77222 263.864 9.70595 258.809 9.68738 253.75C9.68377 252.982 9.68015 252.213 9.67643 251.421C9.64828 236.372 11.1011 221.793 13.9999 207C14.1524 205.988 14.1524 205.988 14.3081 204.954C14.9999 203 14.9999 203 18.5494 201.284C20.1558 200.695 21.7689 200.124 23.3866 199.567C24.2597 199.252 25.1328 198.938 26.0324 198.613C28.912 197.581 31.7993 196.572 34.6874 195.563C36.6748 194.856 38.6617 194.148 40.6483 193.44C46.7566 191.267 52.8766 189.13 58.9999 187C59.9599 186.666 60.92 186.332 61.9091 185.987C71.2089 182.75 80.5179 179.541 89.8436 176.379C90.5146 176.151 91.1855 175.922 91.8768 175.687C96.8473 174.011 100.969 172.874 106.227 172.887Z" fill="#FD9958"/>
<path d="M121 320C122.57 322.125 122.57 322.125 124.125 325C131.471 337.16 143.119 342.682 156.5 346.125C174.382 350.456 192.36 352.171 210.734 352.098C212.107 352.096 213.48 352.094 214.853 352.093C218.424 352.09 221.994 352.08 225.565 352.069C229.225 352.058 232.886 352.054 236.547 352.049C243.698 352.038 250.849 352.021 258 352C258.133 370.458 257.759 388.866 257.125 407.312C257.034 410.024 256.945 412.736 256.856 415.448C256.67 421.081 256.481 426.714 256.291 432.347C255.995 441.119 255.707 449.891 255.422 458.664C255.329 461.506 255.237 464.348 255.144 467.19C255.122 467.878 255.099 468.566 255.076 469.275C254.721 480.183 254.36 491.092 254 502C252.08 502.002 250.161 502.004 248.241 502.005C247.173 502.006 246.104 502.007 245.002 502.008C197.485 501.887 150.211 483.429 112 456C111.024 455.3 111.024 455.3 110.028 454.585C102.84 449.367 96.2142 443.626 89.7539 437.543C87.8174 435.755 85.8913 434.066 83.8555 432.402C81.5623 430.473 79.6614 428.659 77.75 426.375C75.8087 424.086 73.8563 421.849 71.7891 419.672C57.81 404.924 45.9286 387.246 37 369C37.6748 368.416 37.6748 368.416 38.3633 367.82C42.3667 364.338 46.2985 360.797 50.1875 357.188C67.1374 341.84 96.8276 320 121 320Z" fill="#7196FF"/>
<path d="M224.945 47.1286C230.476 51.2839 234.966 58.4347 237 64.9997C238.542 77.618 236.76 86.8508 229 96.9997C229.972 99.4294 230.586 100.745 232.848 102.136C239.993 105.002 249.767 100.401 256.77 98.2732C260.329 97.1928 263.898 96.1813 267.5 95.2497C268.356 95.028 269.212 94.8063 270.094 94.5778C279.25 92.7565 288.546 92.7088 297.85 92.4821C302.478 92.3332 306.858 92.1895 311.34 90.9646C315.269 89.9287 317.97 89.3961 322 89.9997C324.843 91.7662 327.132 93.9597 329.5 96.3122C330.486 97.2637 330.486 97.2637 331.491 98.2343C340.821 107.484 348.188 119.244 349.301 132.613C349.343 145.816 346.872 157.24 337.375 166.937C335.306 168.917 333.406 170.396 331 172C331.33 173.175 331.66 174.351 332 175.562C333.08 179.411 333.077 183.014 333 187C287.134 189.073 239.713 176.487 198 158C198 157.34 198 156.68 198 156C224.159 144.003 251.125 134.793 280.188 134.812C281.191 134.812 282.195 134.811 283.229 134.81C290.975 134.865 298.383 135.521 306 137C306 136.34 306 135.68 306 135C270.134 127.154 229.162 137.386 197.254 154.285C191.963 155.963 187.442 153.439 182.785 151.068C182.072 150.695 181.359 150.322 180.625 149.937C179.889 149.56 179.153 149.183 178.395 148.795C176.593 147.87 174.796 146.936 173 146C186.664 131.316 209.578 125.117 229 123C230.414 122.994 231.828 123.007 233.242 123.035C234 123.038 234.758 123.041 235.539 123.045C237.058 123.056 238.577 123.101 240.094 123.185C250.446 123.073 255.144 117.797 265 112C201.97 111.67 138.94 111.34 74 111C81.0454 103.954 89.0498 98.1296 99.3125 97.6872C105.117 97.8243 110.619 99.3082 115.375 102.687C119.989 104.994 123.97 105.009 129 104C132.415 102.59 135.588 100.751 138.794 98.9248C145.291 95.2545 151.984 92.2916 158.875 89.4372C159.928 88.9959 160.981 88.5545 162.065 88.0998C169.606 84.9997 169.606 84.9997 173 84.9997C172.762 83.9556 172.762 83.9556 172.52 82.8903C170.903 73.8957 171.345 65.9248 176 57.9997C176.598 56.9478 177.196 55.896 177.812 54.8122C190.045 39.0848 208.054 37.3261 224.945 47.1286Z" fill="#FD9654"/>
<path d="M178 211C198.192 210.977 218.384 210.959 238.577 210.948C247.952 210.943 257.326 210.936 266.701 210.925C274.87 210.915 283.038 210.908 291.206 210.906C295.534 210.905 299.861 210.902 304.189 210.894C308.257 210.888 312.326 210.885 316.395 210.887C317.892 210.887 319.39 210.885 320.888 210.881C322.924 210.876 324.959 210.878 326.995 210.88C328.137 210.879 329.28 210.878 330.456 210.877C333 211 333 211 334 212C336.553 224.818 337.461 237.428 337.336 250.477C337.312 253.159 337.316 255.841 337.322 258.523C337.291 280.368 337.291 280.368 333.296 284.958C313.019 303.149 280.718 307.19 254.751 305.887C231.999 304.516 208.844 297.636 192.816 280.691C185.761 272.356 180.796 262.553 178 252C177.795 251.265 177.59 250.53 177.379 249.773C175.858 243.166 175.792 236.56 175.75 229.812C175.741 228.874 175.731 227.935 175.722 226.968C175.726 226.057 175.73 225.146 175.734 224.207C175.737 223.397 175.739 222.587 175.741 221.753C176.09 218.04 177.071 214.613 178 211Z" fill="#938177"/>
<path d="M346 322C350.077 323.658 353.024 326.534 356.187 329.5C356.766 330.04 357.345 330.581 357.941 331.138C362.93 335.847 367.566 340.762 372 346C372.458 346.529 372.915 347.059 373.387 347.604C395.379 373.131 413.684 403.616 426 435C405.754 453.064 383.816 468.764 359 480C357.843 480.524 357.843 480.524 356.663 481.059C354.199 482.161 351.728 483.242 349.25 484.312C348.134 484.801 348.134 484.801 346.995 485.3C340.824 487.897 334.518 489.507 328 491C325.051 466.623 322.2 442.235 319.402 417.84C319.056 414.823 318.709 411.807 318.361 408.79C316.651 393.957 314.97 379.12 313.458 364.265C313.264 362.356 313.067 360.447 312.869 358.539C312.316 353 311.836 347.567 312 342C313.183 341.576 314.367 341.152 315.586 340.715C327.561 336.315 337.213 331.481 346 322Z" fill="#7196FF"/>
<path d="M150 211C151.32 211 152.64 211 154 211C153.83 211.536 153.66 212.072 153.484 212.625C151.808 218.047 150.293 223.505 148.875 229C148.705 229.639 148.534 230.279 148.358 230.938C143.527 249.994 142.926 273.911 151 292C151.384 292.932 151.768 293.864 152.164 294.824C159.623 311.391 174.163 321.54 190.57 328.127C227.847 341.512 273.396 337.299 309.043 321.242C319.37 316.036 327.089 309.669 332.438 299.375C332.756 298.773 333.074 298.171 333.402 297.551C339.575 284.6 339.502 270.086 339.688 256.062C339.721 254.3 339.755 252.538 339.791 250.775C339.875 246.517 339.942 242.259 340 238C342.094 241.599 342.87 245.373 343.691 249.406C343.842 250.127 343.992 250.847 344.146 251.59C344.463 253.116 344.776 254.642 345.087 256.169C345.556 258.466 346.038 260.76 346.522 263.055C348.245 271.36 349.609 279.506 350 288C350.058 289.158 350.058 289.158 350.117 290.338C350.576 301.913 350.436 312.925 342.641 322.234C342.099 322.817 341.558 323.4 341 324C340.52 324.521 340.041 325.042 339.547 325.578C312.945 351.106 259.469 350.435 225.125 350.312C224.061 350.311 222.996 350.309 221.9 350.307C152.659 350.108 152.659 350.108 131.227 330.281C127.731 326.7 124.858 323.241 122.875 318.625C122.563 317.916 122.251 317.207 121.93 316.477C119.368 309.654 118.645 303.721 118.688 296.5C118.692 295.526 118.696 294.552 118.7 293.549C118.827 285.362 119.946 277.942 122 270C122.267 268.818 122.534 267.636 122.809 266.418C127.322 247.583 136.328 225.074 150 211Z" fill="#212951"/>
<path d="M224.945 47.1286C230.476 51.2839 234.966 58.4347 237 64.9997C238.206 74.8675 238.164 84.7861 232 92.9997C230.415 94.8721 228.87 96.3968 227 97.9997C226.417 97.4196 225.835 96.8396 225.234 96.2419C214.109 85.6411 203.919 81.7006 188.703 81.7653C183.254 82.1102 178.203 83.3987 173 84.9997C170.823 75.442 170.985 66.5369 176 57.9997C176.598 56.9478 177.196 55.896 177.813 54.8122C190.045 39.0848 208.054 37.3261 224.945 47.1286Z" fill="#EAF547"/>
<path d="M218.062 215.688C219.085 215.65 220.107 215.613 221.16 215.574C224.709 216.106 225.827 217.204 228 220C228.562 222.562 228.562 222.562 228 225C223.027 228.978 217.541 229.165 211.375 229.25C210.248 229.276 209.122 229.302 207.961 229.328C205 229 205 229 203.133 227.637C202 226 202 226 201.5 223.562C202 221 202 221 204.188 218.75C208.608 216 212.925 215.811 218.062 215.688Z" fill="#452C47"/>
<path d="M289.938 216.625C291.745 216.644 291.745 216.644 293.59 216.664C297.976 217.096 300.863 217.863 304 221C304.344 223.686 304.429 225.315 302.973 227.64C299.907 229.753 296.711 229.393 293.125 229.312C292.064 229.317 292.064 229.317 290.981 229.322C286.928 229.28 283.563 229.007 280 227C278.938 224.125 278.938 224.125 279 221C282.138 216.659 284.754 216.503 289.938 216.625Z" fill="#462C47"/>
<path d="M289.5 234.312C293.93 235.183 295.414 236.316 298 240C298.626 243.965 298.659 245.998 296.438 249.375C293.172 251.552 290.92 252 287 252C283.214 250.024 282.227 248.68 280.875 244.625C281 241 281 241 283 237.562C286 235 286 235 289.5 234.312Z" fill="#482D48"/>
<path d="M216.938 234.375C221.155 235.236 223.114 236.84 226 240C226.795 243.817 226.324 245.417 224.438 248.812C221.23 251.691 219.285 252.075 215 252C212.198 250.234 210.485 248.97 209 246C208.46 241.947 208.658 240.463 211.125 237.125C214 235 214 235 216.938 234.375Z" fill="#472C47"/>
<path d="M244 258C245.812 258.125 245.812 258.125 248 259C249.688 262 249.688 262 251 265C252.224 266.436 252.224 266.436 255.875 266.375C258.03 266.418 258.03 266.418 260 266C262.186 263.391 262.928 261.216 264 258C264.99 258 265.98 258 267 258C266.547 262.867 265.355 265.442 262 269C258.789 270.605 255.483 270.476 252 270C247.685 267.507 245.882 264.557 244 260C244 259.34 244 258.68 244 258Z" fill="#4E314A"/>
</g>
<defs>
<clipPath id="clip0_411_6268">
<rect width="512" height="512" fill="white"/>
</clipPath>
</defs>
</svg>
